<?xml version="1.0" encoding="UTF-8" standalone="no"?>
<!-- Created with Inkscape (http://www.inkscape.org/) -->

<svg
   version="1.1"
   id="svg2"
   xml:space="preserve"
   width="1391.1552"
   height="681.91998"
   viewBox="0 0 1391.1551 681.91999"
   sodipodi:docname="brain-vs-computer.svg"
   inkscape:version="1.1.2 (0a00cf5339, 2022-02-04, custom)"
   xmlns:inkscape="http://www.inkscape.org/namespaces/inkscape"
   xmlns:sodipodi="http://sodipodi.sourceforge.net/DTD/sodipodi-0.dtd"
   xmlns="http://www.w3.org/2000/svg"
   xmlns:svg="http://www.w3.org/2000/svg"><defs
     id="defs6"><clipPath
       clipPathUnits="userSpaceOnUse"
       id="clipPath18"><path
         d="M 0,3371.808 H 2382.696 V 0 H 0 Z"
         id="path16" /></clipPath><clipPath
       clipPathUnits="userSpaceOnUse"
       id="clipPath124"><path
         d="M 0,3371.808 H 2382.696 V 0 H 0 Z"
         id="path122" /></clipPath><clipPath
       clipPathUnits="userSpaceOnUse"
       id="clipPath136"><path
         d="m 87.839,1823.326 h 329.82 V 2078.15 H 87.839 Z"
         id="path134" /></clipPath><clipPath
       clipPathUnits="userSpaceOnUse"
       id="clipPath156"><path
         d="M 0,3371.808 H 2382.696 V 0 H 0 Z"
         id="path154" /></clipPath><clipPath
       clipPathUnits="userSpaceOnUse"
       id="clipPath208"><path
         d="M 788.412,2077.22 H 1041.37 V 1824.25 H 788.412 Z"
         id="path206" /></clipPath><clipPath
       clipPathUnits="userSpaceOnUse"
       id="clipPath212"><path
         d="M 788.412,2077.22 H 1041.37 V 1824.25 H 788.412 Z"
         id="path210" /></clipPath><clipPath
       clipPathUnits="userSpaceOnUse"
       id="clipPath250"><path
         d="M 0,3371.808 H 2382.696 V 0 H 0 Z"
         id="path248" /></clipPath><clipPath
       clipPathUnits="userSpaceOnUse"
       id="clipPath262"><path
         d="m 0.707,2917.166 h 2380.514 v 453.936 H 0.707 Z"
         id="path260" /></clipPath><clipPath
       clipPathUnits="userSpaceOnUse"
       id="clipPath348"><path
         d="M 0,3371.808 H 2382.696 V 0 H 0 Z"
         id="path346" /></clipPath><clipPath
       clipPathUnits="userSpaceOnUse"
       id="clipPath360"><path
         d="m 2104.496,147.832 h 235.915 v 59.023 h -235.915 z"
         id="path358" /></clipPath><clipPath
       clipPathUnits="userSpaceOnUse"
       id="clipPath542"><path
         d="M 0,3371.808 H 2382.696 V 0 H 0 Z"
         id="path540" /></clipPath><linearGradient
       x1="0"
       y1="0"
       x2="1"
       y2="0"
       gradientUnits="userSpaceOnUse"
       gradientTransform="matrix(55.247971,38.685043,38.685043,-55.247971,2113.3564,70.283203)"
       spreadMethod="pad"
       id="linearGradient658"><stop
         style="stop-opacity:1;stop-color:#219ade"
         offset="0"
         id="stop652" /><stop
         style="stop-opacity:1;stop-color:#222a67"
         offset="0.86250022"
         id="stop654" /><stop
         style="stop-opacity:1;stop-color:#222a67"
         offset="1"
         id="stop656" /></linearGradient><clipPath
       clipPathUnits="userSpaceOnUse"
       id="clipPath668"><path
         d="M 0,3371.808 H 2382.696 V 0 H 0 Z"
         id="path666" /></clipPath><clipPath
       clipPathUnits="userSpaceOnUse"
       id="clipPath680"><path
         d="m 2119.38,125.613 h 38.41 V 50.2939 h -38.41 z"
         id="path678" /></clipPath><linearGradient
       x1="0"
       y1="0"
       x2="1"
       y2="0"
       gradientUnits="userSpaceOnUse"
       gradientTransform="matrix(-40.136856,-28.104126,-28.104126,40.136856,2164.4453,104.87891)"
       spreadMethod="pad"
       id="linearGradient692"><stop
         style="stop-opacity:1;stop-color:#ffffff"
         offset="0"
         id="stop686" /><stop
         style="stop-opacity:1;stop-color:#ffffff"
         offset="0.58496236"
         id="stop688" /><stop
         style="stop-opacity:1;stop-color:#331249"
         offset="1"
         id="stop690" /></linearGradient><clipPath
       clipPathUnits="userSpaceOnUse"
       id="clipPath738"><path
         d="M 0,3371.808 H 2382.696 V 0 H 0 Z"
         id="path736" /></clipPath><clipPath
       clipPathUnits="userSpaceOnUse"
       id="clipPath3740"><path
         d="M 0,3371.808 H 2382.696 V 0 H 0 Z"
         id="path3738" /></clipPath><clipPath
       clipPathUnits="userSpaceOnUse"
       id="clipPath6324"><path
         d="M 0,3371.808 H 2382.696 V 0 H 0 Z"
         id="path6322" /></clipPath><clipPath
       clipPathUnits="userSpaceOnUse"
       id="clipPath6350"><path
         d="M 0,3371.808 H 2382.696 V 0 H 0 Z"
         id="path6348" /></clipPath><clipPath
       clipPathUnits="userSpaceOnUse"
       id="clipPath6374"><path
         d="M 0,3371.808 H 2382.696 V 0 H 0 Z"
         id="path6372" /></clipPath><clipPath
       clipPathUnits="userSpaceOnUse"
       id="clipPath9514"><path
         d="m 79.943,737.715 h 80 v 80 h -80 z"
         id="path9512" /></clipPath><clipPath
       clipPathUnits="userSpaceOnUse"
       id="clipPath9526"><path
         d="M 0,3371.808 H 2382.696 V 0 H 0 Z"
         id="path9524" /></clipPath><clipPath
       clipPathUnits="userSpaceOnUse"
       id="clipPath9556"><path
         d="M 0,3371.808 H 2382.696 V 0 H 0 Z"
         id="path9554" /></clipPath><clipPath
       clipPathUnits="userSpaceOnUse"
       id="clipPath10476"><path
         d="M 0,3371.808 H 2382.696 V 0 H 0 Z"
         id="path10474" /></clipPath><clipPath
       clipPathUnits="userSpaceOnUse"
       id="clipPath10586"><path
         d="M 0,3371.808 H 2382.696 V 0 H 0 Z"
         id="path10584" /></clipPath><clipPath
       clipPathUnits="userSpaceOnUse"
       id="clipPath10612"><path
         d="m 1733.311,1653.952 h 85.165 v 85.165 h -85.165 z"
         id="path10610" /></clipPath><clipPath
       clipPathUnits="userSpaceOnUse"
       id="clipPath10624"><path
         d="M 0,3371.808 H 2382.696 V 0 H 0 Z"
         id="path10622" /></clipPath><clipPath
       clipPathUnits="userSpaceOnUse"
       id="clipPath10990"><path
         d="m 1866.236,680.35 h 465.368 v 359.619 h -465.368 z"
         id="path10988" /></clipPath><clipPath
       clipPathUnits="userSpaceOnUse"
       id="clipPath11002"><path
         d="M 0,3371.808 H 2382.696 V 0 H 0 Z"
         id="path11000" /></clipPath><clipPath
       clipPathUnits="userSpaceOnUse"
       id="clipPath11022"><path
         d="m 1866.236,680.35 h 465.368 v 359.619 h -465.368 z"
         id="path11020" /></clipPath><clipPath
       clipPathUnits="userSpaceOnUse"
       id="clipPath11034"><path
         d="M 0,3371.808 H 2382.696 V 0 H 0 Z"
         id="path11032" /></clipPath><clipPath
       clipPathUnits="userSpaceOnUse"
       id="clipPath11054"><path
         d="m 1866.236,680.35 h 465.368 v 359.619 h -465.368 z"
         id="path11052" /></clipPath><clipPath
       clipPathUnits="userSpaceOnUse"
       id="clipPath11066"><path
         d="M 0,3371.808 H 2382.696 V 0 H 0 Z"
         id="path11064" /></clipPath><clipPath
       clipPathUnits="userSpaceOnUse"
       id="clipPath11086"><path
         d="M 0,3371.808 H 2382.696 V 0 H 0 Z"
         id="path11084" /></clipPath><clipPath
       clipPathUnits="userSpaceOnUse"
       id="clipPath11162"><path
         d="m 1866.236,680.35 h 465.368 v 359.619 h -465.368 z"
         id="path11160" /></clipPath><clipPath
       clipPathUnits="userSpaceOnUse"
       id="clipPath11174"><path
         d="M 0,3371.808 H 2382.696 V 0 H 0 Z"
         id="path11172" /></clipPath><clipPath
       clipPathUnits="userSpaceOnUse"
       id="clipPath11190"><path
         d="m 1866.236,680.35 h 465.368 v 359.619 h -465.368 z"
         id="path11188" /></clipPath><clipPath
       clipPathUnits="userSpaceOnUse"
       id="clipPath11202"><path
         d="M 0,3371.808 H 2382.696 V 0 H 0 Z"
         id="path11200" /></clipPath><clipPath
       clipPathUnits="userSpaceOnUse"
       id="clipPath11218"><path
         d="m 1866.236,680.35 h 465.368 v 359.619 h -465.368 z"
         id="path11216" /></clipPath><clipPath
       clipPathUnits="userSpaceOnUse"
       id="clipPath11230"><path
         d="M 0,3371.808 H 2382.696 V 0 H 0 Z"
         id="path11228" /></clipPath><clipPath
       clipPathUnits="userSpaceOnUse"
       id="clipPath11246"><path
         d="m 1866.236,680.35 h 465.368 v 359.619 h -465.368 z"
         id="path11244" /></clipPath><clipPath
       clipPathUnits="userSpaceOnUse"
       id="clipPath11258"><path
         d="M 0,3371.808 H 2382.696 V 0 H 0 Z"
         id="path11256" /></clipPath><clipPath
       clipPathUnits="userSpaceOnUse"
       id="clipPath11274"><path
         d="m 1866.236,680.35 h 465.368 v 359.619 h -465.368 z"
         id="path11272" /></clipPath><clipPath
       clipPathUnits="userSpaceOnUse"
       id="clipPath11286"><path
         d="M 0,3371.808 H 2382.696 V 0 H 0 Z"
         id="path11284" /></clipPath><clipPath
       clipPathUnits="userSpaceOnUse"
       id="clipPath11302"><path
         d="m 1866.236,680.35 h 465.368 v 359.619 h -465.368 z"
         id="path11300" /></clipPath><clipPath
       clipPathUnits="userSpaceOnUse"
       id="clipPath11314"><path
         d="M 0,3371.808 H 2382.696 V 0 H 0 Z"
         id="path11312" /></clipPath><clipPath
       clipPathUnits="userSpaceOnUse"
       id="clipPath11330"><path
         d="m 1866.236,680.35 h 465.368 v 359.619 h -465.368 z"
         id="path11328" /></clipPath><clipPath
       clipPathUnits="userSpaceOnUse"
       id="clipPath11342"><path
         d="M 0,3371.808 H 2382.696 V 0 H 0 Z"
         id="path11340" /></clipPath><clipPath
       clipPathUnits="userSpaceOnUse"
       id="clipPath11362"><path
         d="m 1866.236,680.35 h 465.368 v 359.619 h -465.368 z"
         id="path11360" /></clipPath><clipPath
       clipPathUnits="userSpaceOnUse"
       id="clipPath11374"><path
         d="m 1950.191,692.19 h 7.846 v 7.846 h -7.846 z"
         id="path11372" /></clipPath><clipPath
       clipPathUnits="userSpaceOnUse"
       id="clipPath11386"><path
         d="m 2020.216,797.74 h 7.847 v 7.845 h -7.847 z"
         id="path11384" /></clipPath><clipPath
       clipPathUnits="userSpaceOnUse"
       id="clipPath11398"><path
         d="m 2090.25,862.951 h 7.844 v 7.844 h -7.844 z"
         id="path11396" /></clipPath><clipPath
       clipPathUnits="userSpaceOnUse"
       id="clipPath11410"><path
         d="m 2160.287,888.724 h 7.848 v 7.845 h -7.848 z"
         id="path11408" /></clipPath><clipPath
       clipPathUnits="userSpaceOnUse"
       id="clipPath11422"><path
         d="m 1866.236,680.35 h 465.368 v 359.619 h -465.368 z"
         id="path11420" /></clipPath><clipPath
       clipPathUnits="userSpaceOnUse"
       id="clipPath11434"><path
         d="m 2020.236,800.137 h 7.845 v 7.844 h -7.845 z"
         id="path11432" /></clipPath><clipPath
       clipPathUnits="userSpaceOnUse"
       id="clipPath11446"><path
         d="m 2090.258,889.201 h 7.848 v 7.848 h -7.848 z"
         id="path11444" /></clipPath><clipPath
       clipPathUnits="userSpaceOnUse"
       id="clipPath11458"><path
         d="m 2160.294,936.429 h 7.845 v 7.846 h -7.845 z"
         id="path11456" /></clipPath><clipPath
       clipPathUnits="userSpaceOnUse"
       id="clipPath11470"><path
         d="m 2230.334,951.295 h 7.845 v 7.845 h -7.845 z"
         id="path11468" /></clipPath><clipPath
       clipPathUnits="userSpaceOnUse"
       id="clipPath11482"><path
         d="m 1866.236,680.35 h 465.368 v 359.619 h -465.368 z"
         id="path11480" /></clipPath><clipPath
       clipPathUnits="userSpaceOnUse"
       id="clipPath11494"><path
         d="m 2061.21,866.425 h 7.844 v 7.845 h -7.844 z"
         id="path11492" /></clipPath><clipPath
       clipPathUnits="userSpaceOnUse"
       id="clipPath11506"><path
         d="m 2131.234,932.597 h 7.844 v 7.844 h -7.844 z"
         id="path11504" /></clipPath><clipPath
       clipPathUnits="userSpaceOnUse"
       id="clipPath11518"><path
         d="m 2201.268,963.762 h 7.845 v 7.846 h -7.845 z"
         id="path11516" /></clipPath><clipPath
       clipPathUnits="userSpaceOnUse"
       id="clipPath11530"><path
         d="m 2271.307,972.392 h 7.846 v 7.846 h -7.846 z"
         id="path11528" /></clipPath><clipPath
       clipPathUnits="userSpaceOnUse"
       id="clipPath11542"><path
         d="m 1866.236,680.35 h 465.368 v 359.619 h -465.368 z"
         id="path11540" /></clipPath><clipPath
       clipPathUnits="userSpaceOnUse"
       id="clipPath11554"><path
         d="m 2090.282,899.032 h 7.845 v 7.844 h -7.845 z"
         id="path11552" /></clipPath><clipPath
       clipPathUnits="userSpaceOnUse"
       id="clipPath11566"><path
         d="m 2160.306,952.852 h 7.844 v 7.846 h -7.844 z"
         id="path11564" /></clipPath><clipPath
       clipPathUnits="userSpaceOnUse"
       id="clipPath11578"><path
         d="m 2230.338,977.909 h 7.847 v 7.844 h -7.847 z"
         id="path11576" /></clipPath><clipPath
       clipPathUnits="userSpaceOnUse"
       id="clipPath11590"><path
         d="m 2300.377,984.142 h 7.847 v 7.844 h -7.847 z"
         id="path11588" /></clipPath><clipPath
       clipPathUnits="userSpaceOnUse"
       id="clipPath11602"><path
         d="m 1866.236,680.35 h 465.368 v 359.619 h -465.368 z"
         id="path11600" /></clipPath><clipPath
       clipPathUnits="userSpaceOnUse"
       id="clipPath11614"><path
         d="m 2112.833,918.809 h 7.844 v 7.846 h -7.844 z"
         id="path11612" /></clipPath><clipPath
       clipPathUnits="userSpaceOnUse"
       id="clipPath11626"><path
         d="m 2182.854,964.962 h 7.845 v 7.845 h -7.845 z"
         id="path11624" /></clipPath><clipPath
       clipPathUnits="userSpaceOnUse"
       id="clipPath11638"><path
         d="m 2252.89,985.339 h 7.846 v 7.845 h -7.846 z"
         id="path11636" /></clipPath><clipPath
       clipPathUnits="userSpaceOnUse"
       id="clipPath11650"><path
         d="m 2322.927,990.134 h 7.846 v 7.846 h -7.846 z"
         id="path11648" /></clipPath><clipPath
       clipPathUnits="userSpaceOnUse"
       id="clipPath11662"><path
         d="M 0,3371.808 H 2382.696 V 0 H 0 Z"
         id="path11660" /></clipPath><clipPath
       clipPathUnits="userSpaceOnUse"
       id="clipPath11706"><path
         d="M 0,3371.808 H 2382.696 V 0 H 0 Z"
         id="path11704" /></clipPath><clipPath
       clipPathUnits="userSpaceOnUse"
       id="clipPath11726"><path
         d="M 0,3371.808 H 2382.696 V 0 H 0 Z"
         id="path11724" /></clipPath><clipPath
       clipPathUnits="userSpaceOnUse"
       id="clipPath11746"><path
         d="M 0,3371.808 H 2382.696 V 0 H 0 Z"
         id="path11744" /></clipPath><clipPath
       clipPathUnits="userSpaceOnUse"
       id="clipPath11766"><path
         d="M 0,3371.808 H 2382.696 V 0 H 0 Z"
         id="path11764" /></clipPath><clipPath
       clipPathUnits="userSpaceOnUse"
       id="clipPath11786"><path
         d="M 0,3371.808 H 2382.696 V 0 H 0 Z"
         id="path11784" /></clipPath><clipPath
       clipPathUnits="userSpaceOnUse"
       id="clipPath11796"><path
         d="M 1908.448,1159.106 H 2330.3 v 325.996 h -421.852 z"
         id="path11794" /></clipPath><clipPath
       clipPathUnits="userSpaceOnUse"
       id="clipPath11808"><path
         d="M 0,3371.808 H 2382.696 V 0 H 0 Z"
         id="path11806" /></clipPath><clipPath
       clipPathUnits="userSpaceOnUse"
       id="clipPath11824"><path
         d="M 1908.448,1159.106 H 2330.3 v 325.996 h -421.852 z"
         id="path11822" /></clipPath><clipPath
       clipPathUnits="userSpaceOnUse"
       id="clipPath11836"><path
         d="M 0,3371.808 H 2382.696 V 0 H 0 Z"
         id="path11834" /></clipPath><clipPath
       clipPathUnits="userSpaceOnUse"
       id="clipPath11852"><path
         d="M 1908.448,1159.106 H 2330.3 v 325.996 h -421.852 z"
         id="path11850" /></clipPath><clipPath
       clipPathUnits="userSpaceOnUse"
       id="clipPath11864"><path
         d="M 0,3371.808 H 2382.696 V 0 H 0 Z"
         id="path11862" /></clipPath><clipPath
       clipPathUnits="userSpaceOnUse"
       id="clipPath11880"><path
         d="M 1908.448,1159.106 H 2330.3 v 325.996 h -421.852 z"
         id="path11878" /></clipPath><clipPath
       clipPathUnits="userSpaceOnUse"
       id="clipPath11892"><path
         d="M 0,3371.808 H 2382.696 V 0 H 0 Z"
         id="path11890" /></clipPath><clipPath
       clipPathUnits="userSpaceOnUse"
       id="clipPath11908"><path
         d="M 1908.448,1159.106 H 2330.3 v 325.996 h -421.852 z"
         id="path11906" /></clipPath><clipPath
       clipPathUnits="userSpaceOnUse"
       id="clipPath11920"><path
         d="M 0,3371.808 H 2382.696 V 0 H 0 Z"
         id="path11918" /></clipPath><clipPath
       clipPathUnits="userSpaceOnUse"
       id="clipPath11936"><path
         d="M 1908.448,1159.106 H 2330.3 v 325.996 h -421.852 z"
         id="path11934" /></clipPath><clipPath
       clipPathUnits="userSpaceOnUse"
       id="clipPath11948"><path
         d="M 0,3371.808 H 2382.696 V 0 H 0 Z"
         id="path11946" /></clipPath><clipPath
       clipPathUnits="userSpaceOnUse"
       id="clipPath11964"><path
         d="M 1908.448,1159.106 H 2330.3 v 325.996 h -421.852 z"
         id="path11962" /></clipPath><clipPath
       clipPathUnits="userSpaceOnUse"
       id="clipPath11976"><path
         d="M 0,3371.808 H 2382.696 V 0 H 0 Z"
         id="path11974" /></clipPath><clipPath
       clipPathUnits="userSpaceOnUse"
       id="clipPath11992"><path
         d="M 1908.448,1159.106 H 2330.3 v 325.996 h -421.852 z"
         id="path11990" /></clipPath><clipPath
       clipPathUnits="userSpaceOnUse"
       id="clipPath12004"><path
         d="M 0,3371.808 H 2382.696 V 0 H 0 Z"
         id="path12002" /></clipPath><clipPath
       clipPathUnits="userSpaceOnUse"
       id="clipPath12020"><path
         d="M 1908.448,1159.106 H 2330.3 v 325.996 h -421.852 z"
         id="path12018" /></clipPath><clipPath
       clipPathUnits="userSpaceOnUse"
       id="clipPath12032"><path
         d="M 0,3371.808 H 2382.696 V 0 H 0 Z"
         id="path12030" /></clipPath><clipPath
       clipPathUnits="userSpaceOnUse"
       id="clipPath12048"><path
         d="M 1908.448,1159.106 H 2330.3 v 325.996 h -421.852 z"
         id="path12046" /></clipPath><clipPath
       clipPathUnits="userSpaceOnUse"
       id="clipPath12060"><path
         d="M 0,3371.808 H 2382.696 V 0 H 0 Z"
         id="path12058" /></clipPath><clipPath
       clipPathUnits="userSpaceOnUse"
       id="clipPath12076"><path
         d="M 1908.448,1159.106 H 2330.3 v 325.996 h -421.852 z"
         id="path12074" /></clipPath><clipPath
       clipPathUnits="userSpaceOnUse"
       id="clipPath12088"><path
         d="M 0,3371.808 H 2382.696 V 0 H 0 Z"
         id="path12086" /></clipPath><clipPath
       clipPathUnits="userSpaceOnUse"
       id="clipPath12104"><path
         d="M 1908.448,1159.106 H 2330.3 v 325.996 h -421.852 z"
         id="path12102" /></clipPath><clipPath
       clipPathUnits="userSpaceOnUse"
       id="clipPath12116"><path
         d="M 0,3371.808 H 2382.696 V 0 H 0 Z"
         id="path12114" /></clipPath><clipPath
       clipPathUnits="userSpaceOnUse"
       id="clipPath12132"><path
         d="M 1908.448,1159.106 H 2330.3 v 325.996 h -421.852 z"
         id="path12130" /></clipPath><clipPath
       clipPathUnits="userSpaceOnUse"
       id="clipPath12144"><path
         d="M 0,3371.808 H 2382.696 V 0 H 0 Z"
         id="path12142" /></clipPath><clipPath
       clipPathUnits="userSpaceOnUse"
       id="clipPath12160"><path
         d="M 1908.448,1159.106 H 2330.3 v 325.996 h -421.852 z"
         id="path12158" /></clipPath><clipPath
       clipPathUnits="userSpaceOnUse"
       id="clipPath12172"><path
         d="M 0,3371.808 H 2382.696 V 0 H 0 Z"
         id="path12170" /></clipPath><clipPath
       clipPathUnits="userSpaceOnUse"
       id="clipPath12188"><path
         d="M 1908.448,1159.106 H 2330.3 v 325.996 h -421.852 z"
         id="path12186" /></clipPath><clipPath
       clipPathUnits="userSpaceOnUse"
       id="clipPath12200"><path
         d="M 0,3371.808 H 2382.696 V 0 H 0 Z"
         id="path12198" /></clipPath><clipPath
       clipPathUnits="userSpaceOnUse"
       id="clipPath12216"><path
         d="M 1908.448,1159.106 H 2330.3 v 325.996 h -421.852 z"
         id="path12214" /></clipPath><clipPath
       clipPathUnits="userSpaceOnUse"
       id="clipPath12416"><path
         d="M 0,3371.808 H 2382.696 V 0 H 0 Z"
         id="path12414" /></clipPath><clipPath
       clipPathUnits="userSpaceOnUse"
       id="clipPath12452"><path
         d="M 0,3371.808 H 2382.696 V 0 H 0 Z"
         id="path12450" /></clipPath><clipPath
       clipPathUnits="userSpaceOnUse"
       id="clipPath12464"><path
         d="m 1916.154,1402.126 h 221.633 v 74.748 h -221.633 z"
         id="path12462" /></clipPath><clipPath
       clipPathUnits="userSpaceOnUse"
       id="clipPath12488"><path
         d="M 0,3371.808 H 2382.696 V 0 H 0 Z"
         id="path12486" /></clipPath><clipPath
       clipPathUnits="userSpaceOnUse"
       id="clipPath12518"><path
         d="m 2109.901,1301.474 h 15.393 v 13.189 h -15.393 z"
         id="path12516" /></clipPath><clipPath
       clipPathUnits="userSpaceOnUse"
       id="clipPath12532"><path
         d="m 2109.901,1279.486 h 15.393 v 13.194 h -15.393 z"
         id="path12530" /></clipPath><clipPath
       clipPathUnits="userSpaceOnUse"
       id="clipPath12546"><path
         d="m 2109.901,1258.052 h 15.393 v 13.19 h -15.393 z"
         id="path12544" /></clipPath><clipPath
       clipPathUnits="userSpaceOnUse"
       id="clipPath12560"><path
         d="m 2109.901,1236.068 h 15.393 v 13.191 h -15.393 z"
         id="path12558" /></clipPath><clipPath
       clipPathUnits="userSpaceOnUse"
       id="clipPath12574"><path
         d="m 2109.901,1214.082 h 15.393 v 13.192 h -15.393 z"
         id="path12572" /></clipPath><clipPath
       clipPathUnits="userSpaceOnUse"
       id="clipPath12588"><path
         d="m 2109.901,1192.099 h 15.393 v 13.19 h -15.393 z"
         id="path12586" /></clipPath><clipPath
       clipPathUnits="userSpaceOnUse"
       id="clipPath12598"><path
         d="M 0,3371.808 H 2382.696 V 0 H 0 Z"
         id="path12596" /></clipPath><clipPath
       clipPathUnits="userSpaceOnUse"
       id="clipPath12618"><path
         d="M 0,3371.808 H 2382.696 V 0 H 0 Z"
         id="path12616" /></clipPath><clipPath
       clipPathUnits="userSpaceOnUse"
       id="clipPath12634"><path
         d="M 0,3371.808 H 2382.696 V 0 H 0 Z"
         id="path12632" /></clipPath><clipPath
       clipPathUnits="userSpaceOnUse"
       id="clipPath12704"><path
         d="M 0,3371.808 H 2382.696 V 0 H 0 Z"
         id="path12702" /></clipPath><clipPath
       clipPathUnits="userSpaceOnUse"
       id="clipPath124-3"><path
         d="M 0,3371.808 H 2382.696 V 0 H 0 Z"
         id="path122-6" /></clipPath><clipPath
       clipPathUnits="userSpaceOnUse"
       id="clipPath136-7"><path
         d="m 87.839,1823.326 h 329.82 V 2078.15 H 87.839 Z"
         id="path134-5" /></clipPath><clipPath
       clipPathUnits="userSpaceOnUse"
       id="clipPath156-3"><path
         d="M 0,3371.808 H 2382.696 V 0 H 0 Z"
         id="path154-5" /></clipPath><clipPath
       clipPathUnits="userSpaceOnUse"
       id="clipPath208-6"><path
         d="M 788.412,2077.22 H 1041.37 V 1824.25 H 788.412 Z"
         id="path206-2" /></clipPath><clipPath
       clipPathUnits="userSpaceOnUse"
       id="clipPath212-9"><path
         d="M 788.412,2077.22 H 1041.37 V 1824.25 H 788.412 Z"
         id="path210-1" /></clipPath><clipPath
       clipPathUnits="userSpaceOnUse"
       id="clipPath208-6-3"><path
         d="M 788.412,2077.22 H 1041.37 V 1824.25 H 788.412 Z"
         id="path206-2-6" /></clipPath><clipPath
       clipPathUnits="userSpaceOnUse"
       id="clipPath212-9-7"><path
         d="M 788.412,2077.22 H 1041.37 V 1824.25 H 788.412 Z"
         id="path210-1-5" /></clipPath></defs><sodipodi:namedview
     id="namedview4"
     pagecolor="#ffffff"
     bordercolor="#666666"
     borderopacity="1.0"
     inkscape:pageshadow="2"
     inkscape:pageopacity="0.0"
     inkscape:pagecheckerboard="0"
     showgrid="false"
     inkscape:zoom="0.63971577"
     inkscape:cx="765.18358"
     inkscape:cy="308.73086"
     inkscape:window-width="1920"
     inkscape:window-height="1054"
     inkscape:window-x="0"
     inkscape:window-y="26"
     inkscape:window-maximized="1"
     inkscape:current-layer="g8" /><g
     id="g8"
     inkscape:groupmode="layer"
     inkscape:label="Poster_Dovydas_Joksas"
     transform="matrix(1.3333333,0,0,-1.3333333,10.676126,4361.7157)"><text
       transform="scale(1,-1)"
       style="font-style:normal;font-variant:normal;font-weight:300;font-stretch:normal;font-size:48px;font-family:'Fira Sans';-inkscape-font-specification:'Fira Sans Light';writing-mode:lr-tb;fill:#000000;fill-opacity:1;fill-rule:nonzero;stroke:none"
       id="text96"
       x="512.11554"
       y="-3235.2869"><tspan
         x="512.11554"
         y="-3235.2869"
         sodipodi:role="line"
         id="tspan94"
         style="font-style:normal;font-variant:normal;font-weight:normal;font-stretch:normal;font-size:48px;font-family:'Fira Sans';-inkscape-font-specification:'Fira Sans';text-align:center;text-anchor:middle;fill:#000000">Game of Go</tspan></text><text
       transform="scale(1,-1)"
       style="font-style:normal;font-variant:normal;font-weight:300;font-stretch:normal;font-size:48px;font-family:'Fira Sans';-inkscape-font-specification:'Fira Sans Light';writing-mode:lr-tb;fill:#000000;fill-opacity:1;fill-rule:nonzero;stroke:none"
       id="text96-3"
       x="512.5755"
       y="-2975.3975"><tspan
         x="512.5755"
         y="-2975.3975"
         sodipodi:role="line"
         id="tspan94-5"
         style="font-style:normal;font-variant:normal;font-weight:normal;font-stretch:normal;font-size:48px;font-family:'Fira Sans';-inkscape-font-specification:'Fira Sans';text-align:center;text-anchor:middle;fill:#000000">vs</tspan></text><text
       transform="scale(1,-1)"
       style="font-style:normal;font-variant:normal;font-weight:300;font-stretch:normal;font-size:40px;line-height:1;font-family:'Fira Sans';-inkscape-font-specification:'Fira Sans Light';writing-mode:lr-tb;fill:#000000;fill-opacity:1;fill-rule:nonzero;stroke:none"
       id="text96-9"
       x="158.89949"
       y="-3175.2869"><tspan
         x="158.89949"
         y="-3175.2869"
         sodipodi:role="line"
         id="tspan94-3"
         style="text-align:center;text-anchor:middle;fill:#000000">Lee Sedol</tspan><tspan
         x="158.89949"
         y="-3135.2869"
         sodipodi:role="line"
         id="tspan31613"
         style="font-size:28px;text-align:center;text-anchor:middle;fill:#000000">(human brain)</tspan></text><text
       transform="scale(1,-1)"
       style="font-style:normal;font-variant:normal;font-weight:300;font-stretch:normal;font-size:40px;line-height:1;font-family:'Fira Sans';-inkscape-font-specification:'Fira Sans Light';writing-mode:lr-tb;fill:#000000;fill-opacity:1;fill-rule:nonzero;stroke:none"
       id="text96-9-8"
       x="157.29948"
       y="-2800.2869"><tspan
         x="157.29948"
         y="-2800.2869"
         sodipodi:role="line"
         id="tspan31613-5"
         style="font-size:40px;text-align:center;text-anchor:middle;fill:#000000">Wins: 1</tspan><tspan
         x="157.29948"
         y="-2760.2869"
         sodipodi:role="line"
         style="font-size:40px;text-align:center;text-anchor:middle;fill:#000000"
         id="tspan56513">Power: 20 W</tspan></text><text
       transform="scale(1,-1)"
       style="font-style:normal;font-variant:normal;font-weight:300;font-stretch:normal;font-size:40px;line-height:1;font-family:'Fira Sans';-inkscape-font-specification:'Fira Sans Light';writing-mode:lr-tb;fill:#193949;fill-opacity:1;fill-rule:nonzero;stroke:none"
       id="text96-9-8-0"
       x="868.3194"
       y="-2800.2869"><tspan
         x="868.3194"
         y="-2800.2869"
         sodipodi:role="line"
         id="tspan31613-5-3"
         style="font-size:40px;text-align:center;text-anchor:middle;fill:#000000">Wins: 4</tspan><tspan
         x="868.3194"
         y="-2760.2869"
         sodipodi:role="line"
         style="font-size:40px;text-align:center;text-anchor:middle;fill:#d55e00"
         id="tspan56513-6">Power: 1 000 000 W</tspan></text><text
       transform="scale(1,-1)"
       style="font-style:normal;font-variant:normal;font-weight:300;font-stretch:normal;font-size:40px;line-height:1;font-family:'Fira Sans';-inkscape-font-specification:'Fira Sans Light';writing-mode:lr-tb;fill:#000000;fill-opacity:1;fill-rule:nonzero;stroke:none"
       id="text96-9-1"
       x="869.91943"
       y="-3175.2869"><tspan
         x="869.91943"
         y="-3175.2869"
         sodipodi:role="line"
         id="tspan31613-4"
         style="font-size:40px;text-align:center;text-anchor:middle;fill:#000000">AlphaGo</tspan><tspan
         x="869.91943"
         y="-3135.2869"
         sodipodi:role="line"
         style="font-size:28px;text-align:center;text-anchor:middle;fill:#000000"
         id="tspan42383">(CPUs and GPUs)</tspan></text><g
       id="g118"
       transform="translate(-104.97153,1035.199)"><g
         id="g120"
         clip-path="url(#clipPath124-3)"><g
           id="g126"
           transform="translate(384.6807,1916.1436)"><path
             d="m 0,0 c 4.883,-9.858 2.871,-22.046 -3.496,-30.752 -6.279,-10.698 -12.998,-21.924 -23.682,-28.755 -7.314,-4.043 -15.073,-7.412 -23.071,-9.785 -8.042,-1.377 -16.299,-0.527 -24.312,0.566 -14.409,3.428 -24.794,15.098 -33.266,26.524 -4.536,4.814 -5.239,11.367 -5.606,17.637 -0.356,2.568 -1.24,5.009 -2.143,7.456 -7.608,20.551 4.536,15.59 4.536,15.59 l 23.257,17.442 37.109,6.035 24.8,-1.929 L -6.895,13.701 0,0"
             style="fill:#000000;fill-opacity:1;fill-rule:nonzero;stroke:#ffffff;stroke-width:0.852;stroke-linecap:butt;stroke-linejoin:miter;stroke-miterlimit:4;stroke-dasharray:none;stroke-opacity:1"
             id="path128" /></g></g></g><g
       id="g130"
       transform="translate(-104.97153,1035.199)"><g
         id="g132"
         clip-path="url(#clipPath136-7)"><g
           id="g138"
           transform="translate(272.4297,1890.4111)"
           style="stroke:#f0e442"><path
             d="M 0,0 C 2.437,3.193 4.868,6.392 7.305,9.585 M 3.252,-6.753 C 3.794,-0.464 8.345,4.365 12.153,8.999 M 6.675,-11.777 c 1.367,7.934 5.986,14.624 10.273,21.23 m -5.937,-23.97 c 2.451,8.091 3.359,17.3 9.36,23.746 m -4.336,-24.2 c 1.275,8.77 2.481,18.179 7.759,25.567 m -3.423,-24.654 c 0.376,8.35 0.908,17.481 6.748,24.053 1.489,1.714 3.14,3.267 4.668,4.937 M 11.47,-19.536 c 7.612,-8.193 15.81,-16.66 26.836,-20 5.024,-1.768 10.302,-2.661 15.395,-4.199 m -38.579,25.112 c 6.021,-5.645 11.748,-11.841 19.268,-15.523 9.311,-5.361 20.39,-6.708 30.952,-6.85 m -46.343,23.057 c 4.702,-4.493 9.258,-9.488 15.469,-11.875 11.011,-6.07 23.774,-7.891 36.191,-7.891 l 0.884,-0.044 0.874,-0.049 m -50.903,20.772 c 5.288,-4.854 11.089,-9.356 18.032,-11.524 7.432,-2.524 15.166,-4.619 23.081,-4.404 5.62,-0.112 11.245,0.005 16.87,-0.054 m -54.101,17.124 c 6.328,-5.801 13.857,-11.577 22.836,-11.719 6.011,-1.333 12.432,-2.348 18.287,0.137 7.177,1.475 14.726,1.299 21.884,-0.097 l 0.796,-0.225 0.801,-0.195 m -39.722,12.099 c 6.709,-0.156 13.667,-0.879 20.083,1.568 9.634,1.518 19.615,1.367 29.224,-0.201 m -62.319,-1.596 c 12.963,-5.337 27.666,-5.357 41.025,-1.475 5.908,1.196 11.782,-0.4 17.642,-1.035 m -67.344,3.882 c 7.148,-4.863 14.892,-10 23.896,-9.907 8.272,0.229 16.519,1.069 24.615,2.793 5.854,1.137 11.86,0.747 17.465,-1.338 m -3.427,17.124 c 4.477,0.332 8.999,0.976 13.471,0.229 M 80.64,-5.386 c 9.214,3.115 18.857,4.336 28.535,4.795 M 69.453,-6.294 c 8.355,4.331 17.427,8.115 27.022,7.73 5.356,0.561 10.908,1.181 15.669,3.911 M 48.452,-14.287 c 11.885,1.133 22.456,8.618 34.658,7.681 5.503,0.19 10.572,-2.354 15.655,-3.633 1.411,-0.059 2.827,-0.113 4.248,-0.166 m -60.269,-2.74 c 14.663,2.627 26.86,12.061 41.011,16.148 8.745,1.709 18.271,0.581 26.216,5.322 0.879,0.381 1.753,0.752 2.627,1.128 M 35.439,-13.374 c 6.431,3.809 13.052,7.529 20.376,9.277 8.287,3.36 15.494,9.727 24.727,10.435 7.412,1.699 15.068,1.958 22.539,3.169 3.76,1.157 7.466,2.563 10.889,4.512 M 37.041,-9.722 c 3.95,4.39 8.98,7.569 14.443,9.722 6.426,2.949 13.277,5.02 19.283,8.794 10.517,4.297 22.534,1.23 32.998,5.869 3.056,1.221 6.01,2.676 9.062,3.921 M 42.061,13.335 c 13.588,5.84 26.816,13.721 41.879,14.907 0.879,0.132 1.758,0.264 2.637,0.386 M 23.34,-11.777 c 1.772,7.612 2.295,16.674 9.116,21.757 4.697,3.912 10.181,6.7 15.308,9.976 M 26.309,-11.548 c 2.138,6.602 3.139,14.527 9.585,18.535 4.531,2.608 9.819,3.628 13.93,7.032 m 2.51,-6.163 c 6.074,3.506 12.266,8.155 19.678,7.5 8.852,1.158 16.596,6.797 25.678,6.812 3.765,0.566 7.51,1.216 11.255,1.899 M 29.507,-11.318 c 2.744,7.314 6.728,15.151 14.399,18.242 3.599,1.606 7.212,3.481 9.727,6.597 5.947,4.624 13.379,6.914 20.61,8.569 8.692,0.786 16.841,4.643 25.571,4.941 M 32.7,-12.231 c 2.686,7.075 8.408,13.037 15.757,15.195 9.946,3.149 18.647,9.951 29.287,10.869 8.96,1.406 18.071,2.178 26.734,5.054 2.856,0.771 5.742,1.758 8.12,3.579"
             style="fill:none;stroke:#ffffff;stroke-width:0.639;stroke-linecap:round;stroke-linejoin:round;stroke-miterlimit:4;stroke-dasharray:none;stroke-opacity:1"
             id="path140" /></g><g
           id="g142"
           transform="translate(140.6128,1912.916)"><path
             d="m 0,0 c -9.893,3.647 -18.428,10.342 -24.878,18.833 -4.385,4.971 -10.244,9.058 -11.191,16.089 -1.289,4.057 -3.887,9.424 -2.334,12.314 -7.886,4.019 -4.136,14.248 -2.339,20.777 3.149,5.669 -3.579,11.538 0.39,16.894 5.586,2.163 0.581,7.803 4.019,11.822 2.534,4.155 6.621,8.291 11.797,8.837 -0.527,6.563 5.84,10.03 8.398,15.498 5.523,4.776 10.225,10.962 17.886,12.1 6.533,3.779 14.253,4.551 20.391,9.155 5.932,4.068 12.48,6.543 19.599,7.535 9.512,1.855 18.902,4.096 27.672,8.339 15.815,2.632 32.05,5.957 48.056,3.936 6.592,-2.441 13.184,2.329 20,1.797 9.512,0.757 18.848,-2.774 28.286,-3.858 7.862,-2.431 15.855,-5.254 23.35,-8.525 3.682,-4.819 10.835,-3.032 14.761,-7.744 5.84,-4.717 13.843,-8.042 16.958,-15.103 0.351,-4.502 6.372,-6.274 9.258,-9.394 7.68,-4.942 12.876,-12.72 18.09,-19.951 1.133,-3.99 3.516,-8.829 2.247,-12.076 7.338,-6.435 10.61,-16.005 15.927,-23.999 0.938,-5.385 4.907,-10.693 3.55,-16.137 3.94,-3.033 4.375,-8.887 5.737,-13.355 -0.796,-6.484 -0.039,-13.501 -4.922,-18.574 -2.451,-5.137 -6.352,-8.823 -11.42,-11.348 -4.834,-2.929 -11.123,-2.417 -16.285,-0.464 -12.69,3.843 -25.986,3.76 -38.969,5.967 -7.09,-3.008 -13.34,-7.656 -21.026,-9.267 -7.148,-2.286 -14.624,-6.109 -22.231,-3.648 0.19,-6.763 -7.871,-6.382 -12.705,-7.28 -9.239,-1.836 -18.775,-2.246 -28.008,-3.399 -10.2,-5.566 -21.235,-10.024 -30.679,-16.723 -4.023,-4.981 -10.288,-7.964 -16.699,-6.402 -7.007,0.499 -12.578,5.982 -19.019,8.521 -5.512,3.545 -12.905,1.294 -17.949,6.055 -4.141,2.007 -7.09,6.24 -9.326,9.975 -2.588,3.477 3.379,11.338 -1.558,11.324 C 16.558,-0.986 10.859,-1.782 0,0"
             style="fill:#000000;fill-opacity:1;fill-rule:nonzero;stroke:none"
             id="path144" /></g><g
           id="g146"
           transform="translate(140.6128,1912.916)"><path
             d="m 0,0 c -9.893,3.647 -18.428,10.342 -24.878,18.833 -4.385,4.971 -10.244,9.058 -11.191,16.089 -1.289,4.057 -3.887,9.424 -2.334,12.314 -7.886,4.019 -4.136,14.248 -2.339,20.777 3.149,5.669 -3.579,11.538 0.39,16.894 5.586,2.163 0.581,7.803 4.019,11.822 2.534,4.155 6.621,8.291 11.797,8.837 -0.527,6.563 5.84,10.03 8.398,15.498 5.523,4.776 10.225,10.962 17.886,12.1 6.533,3.779 14.253,4.551 20.391,9.155 5.932,4.068 12.48,6.543 19.599,7.535 9.512,1.855 18.902,4.096 27.672,8.339 15.815,2.632 32.05,5.957 48.056,3.936 6.592,-2.441 13.184,2.329 20,1.797 9.512,0.757 18.848,-2.774 28.286,-3.858 7.862,-2.431 15.855,-5.254 23.35,-8.525 3.682,-4.819 10.835,-3.032 14.761,-7.744 5.84,-4.717 13.843,-8.042 16.958,-15.103 0.351,-4.502 6.372,-6.274 9.258,-9.394 7.68,-4.942 12.876,-12.72 18.09,-19.951 1.133,-3.99 3.516,-8.829 2.247,-12.076 7.338,-6.435 10.61,-16.005 15.927,-23.999 0.938,-5.385 4.907,-10.693 3.55,-16.137 3.94,-3.033 4.375,-8.887 5.737,-13.355 -0.796,-6.484 -0.039,-13.501 -4.922,-18.574 -2.451,-5.137 -6.352,-8.823 -11.42,-11.348 -4.834,-2.929 -11.123,-2.417 -16.285,-0.464 -12.69,3.843 -25.986,3.76 -38.969,5.967 -7.09,-3.008 -13.34,-7.656 -21.026,-9.267 -7.148,-2.286 -14.624,-6.109 -22.231,-3.648 0.19,-6.763 -7.871,-6.382 -12.705,-7.28 -9.239,-1.836 -18.775,-2.246 -28.008,-3.399 -10.2,-5.566 -21.235,-10.024 -30.679,-16.723 -4.023,-4.981 -10.288,-7.964 -16.699,-6.402 -7.007,0.499 -12.578,5.982 -19.019,8.521 -5.512,3.545 -12.905,1.294 -17.949,6.055 -4.141,2.007 -7.09,6.24 -9.326,9.975 -2.588,3.477 3.379,11.338 -1.558,11.324 C 16.558,-0.986 10.859,-1.782 0,0 Z"
             style="fill:none;stroke:#ffffff;stroke-width:0.852;stroke-linecap:butt;stroke-linejoin:miter;stroke-miterlimit:4;stroke-dasharray:none;stroke-opacity:1"
             id="path148" /></g></g></g><g
       id="g150"
       transform="translate(-74.971533,1065.199)"><g
         id="g152"
         clip-path="url(#clipPath156-3)"
         transform="translate(-30,-30)"><g
           id="g158"
           transform="translate(179.6753,1899.3613)"
           style="stroke:#f0e442"><path
             d="m 0,0 c 12.408,4.438 15.777,18.789 26.08,25.854 7.651,5.269 16.01,13.76 26.152,9.839 13.018,-4.316 27.212,0.508 37.397,9.024 7.369,6.533 17.046,9.892 26.861,8.471 11.377,-2.988 13.911,8.204 17.417,16.114 4.399,8.618 14.863,11.894 17.143,22.007 5.694,8.798 9.292,18.769 10.972,29.111 0.166,7.617 5.112,13.359 9.878,18.76 0.703,1.006 1.318,2.06 1.792,3.188"
             style="fill:none;stroke:#ffffff;stroke-width:1.598;stroke-linecap:round;stroke-linejoin:round;stroke-miterlimit:4;stroke-dasharray:none;stroke-opacity:1"
             id="path160" /></g><g
           id="g162"
           transform="translate(204.2119,1882.5693)"
           style="stroke:#f0e442"><path
             d="m 0,0 c 6.826,4.707 13.081,10.356 17.744,17.241 4.024,3.672 9.873,2.559 14.785,3.745 4.585,0.108 8.809,2.007 12.549,4.536 3.311,2.715 6.973,-0.361 9.956,-2.036 3.355,-2.192 6.602,-4.555 10.181,-6.372"
             style="fill:none;stroke:#ffffff;stroke-width:0.799;stroke-linecap:round;stroke-linejoin:round;stroke-miterlimit:4;stroke-dasharray:none;stroke-opacity:1"
             id="path164" /></g><g
           id="g166"
           transform="translate(167.0874,1911.3047)"
           style="stroke:#f0e442"><path
             d="m 0,0 c 5.615,12.969 11.25,26.44 23.497,34.639 12.719,9.853 27.71,21.591 44.677,20.073 16.602,-5.986 19.502,14.316 31.353,20.122 10.356,5.85 26.333,-1.68 33.017,11.465 5.694,11.26 7.417,10.014 10.391,13.691"
             style="fill:none;stroke:#ffffff;stroke-width:2.397;stroke-linecap:round;stroke-linejoin:round;stroke-miterlimit:4;stroke-dasharray:none;stroke-opacity:1"
             id="path168" /></g><g
           id="g170"
           transform="translate(256.5117,1976.8418)"><path
             d="M 0,0 C -3.413,12.813 -8.262,20.806 -5.186,34.102 -4.053,40.483 3.34,53.477 8.35,57.485 19.336,74.468 19.268,70.498 34.585,75.093"
             style="fill:none;stroke:#ffffff;stroke-width:1.598;stroke-linecap:round;stroke-linejoin:round;stroke-miterlimit:4;stroke-dasharray:none;stroke-opacity:1"
             id="path172" /></g><g
           id="g174"
           transform="translate(346.9072,1993.3018)"><path
             d="m 0,0 c 2.026,-2.998 4.282,-5.845 6.167,-8.94 0.869,-8.272 3.403,-16.866 0.62,-25.044 -1.772,-5.913 -3.974,-11.958 -3.374,-18.238 -1.968,-3.359 0.337,-8.408 4.273,-8.852 3.476,-1.646 8.261,-2.09 11.049,1.069 4.253,3.657 9.795,6.382 15.533,5.654 3.52,0.186 6.982,3.477 6.132,7.173 -0.097,1.011 -0.346,1.997 -0.693,2.949 M -9.307,12.417 c -3.847,13.633 -17.734,10.01 -22.881,22.983 -3.486,5.572 -6.923,22.095 -10.273,27.764 -6.851,3.335 -12.436,9.863 -13.242,17.612 -0.156,0.518 -0.313,1.036 -0.469,1.548"
             style="fill:none;stroke:#ffffff;stroke-width:0.799;stroke-linecap:round;stroke-linejoin:round;stroke-miterlimit:4;stroke-dasharray:none;stroke-opacity:1"
             id="path176" /></g><g
           id="g178"
           transform="translate(365.6328,1955.5332)"
           style="stroke:#f0e442"><path
             d="m 0,0 c 8.784,1.86 17.544,3.867 26.152,6.455 2.329,-0.561 5.166,-0.41 6.846,-2.422 2.827,-2.217 5.571,-4.629 7.505,-7.685 3.252,-3.99 5.674,-8.54 7.91,-13.14 l 0.171,-0.322 0.166,-0.318"
             style="fill:none;stroke:#ffffff;stroke-width:1.598;stroke-linecap:round;stroke-linejoin:round;stroke-miterlimit:4;stroke-dasharray:none;stroke-opacity:1"
             id="path180" /></g><g
           id="g182"
           transform="translate(394.3633,1973.2871)"><path
             d="m 0,0 c 2.153,1.504 4.302,3.013 6.46,4.517 m -20.02,20.664 0.967,8.715 -2.256,8.072 -1.611,6.46 m 1.289,-49.717 c 0,6.035 -0.107,20.923 -9.687,17.109 -6.871,-3.11 -7.774,-12.978 -13.56,-13.882 m -37.124,-62.631 -4.521,5.166 m -74.893,-5.811 c -6.177,2.168 -13.008,8.75 -9.692,15.816 m 87.172,23.891 c 1.397,0.645 2.793,1.289 4.195,1.939 m -11.626,2.583 c 2.71,-2.32 8.403,-3.36 7.431,-8.072 M -7.1,-54.883 c 8.116,5.02 13.96,14.419 11.924,24.185 -0.317,2.446 -0.947,4.858 -1.919,7.134 m -55.2,52.622 c 6.821,6.572 14.761,11.821 22.778,16.806 1.651,2.749 1.67,6.06 2.725,9.019 M -40.352,1.616 c -4.37,-1.684 -8.671,-3.52 -12.915,-5.493 m -4.843,-10.327 c 2.905,1.294 5.815,2.583 8.715,3.872 m -20.336,2.583 c 7.207,-1.953 16.489,-8.018 10.019,-16.177 -0.688,-1.387 -1.553,-2.69 -2.598,-3.838 m -59.399,-29.38 c 3.672,1.89 8.325,2.671 10.654,6.46 m 12.593,-10.332 c -6.196,7.149 -15.767,10.811 -20.327,19.512 -2.72,3.994 -4.009,8.926 -3.565,13.74 m 65.215,-10.009 c -4.345,-1.094 -8.559,-2.784 -13.017,-3.394 -6.431,-0.674 -12.896,-1.123 -19.361,-1.089 -2.158,0 -4.062,1.196 -5.449,2.778 -2.168,2.388 -3.945,5.103 -6.094,7.515 -0.532,0.645 -1.069,1.294 -1.601,1.939 m 99.433,19.047 c 1.29,4.346 3.663,9.048 1.768,13.584 -2.241,6.045 -7.08,10.601 -9.98,16.27 -1.133,2.949 -2.408,6.167 -5.328,7.773 -2.778,1.958 -6.254,2.217 -9.506,2.647 -5.259,1.45 -7.622,6.885 -10.85,10.737"
             style="fill:none;stroke:#ffffff;stroke-width:0.799;stroke-linecap:round;stroke-linejoin:round;stroke-miterlimit:4;stroke-dasharray:none;stroke-opacity:1"
             id="path184" /></g><g
           id="g186"
           transform="translate(274.2705,2072.7207)"
           style="stroke:#f0e442"><path
             d="m 0,0 c 4.785,-1.118 7.964,-9.805 1.045,-10.073 -5.884,-1.04 -11.968,-1.948 -16.997,-5.44 -4.033,-2.539 -9.854,-5.835 -8.872,-11.469 2.803,-4.029 0.425,-7.901 -4.116,-8.833 -4.517,-3.433 -6.177,-9.185 -7.559,-14.546 -2.378,-4.654 -4.18,-10.484 -8.75,-13.33 -6.24,-2.442 -4.771,-9.493 -2.949,-14.248 0.166,-6.163 -6.465,-8.086 -9.019,-12.588 -0.991,-5.088 -5.049,-7.774 -8.711,-10.879 -4.228,-3.115 -0.771,-7.705 2.422,-9.942 0.488,-0.361 0.996,-0.693 1.524,-0.996 m 112.666,92.329 c -0.782,2.105 0.546,4.693 2.7,5.323 1.631,1.157 2.837,2.802 4.399,4.038 m 18.404,-20.664 c -4.395,5.058 -10.943,7.309 -17.105,9.375 -4.717,1.948 -10.41,2.705 -15.044,0.117 -1.772,-0.889 -3.462,-1.948 -5.298,-2.705 m 5.489,-11.948 c 2.47,0.209 4.951,0.429 7.426,0.644 3.579,2.583 7.232,5.073 10.972,7.427 M 23.242,-88.135 c 5.029,-1.064 10.445,-2.558 15.459,-0.6 4.195,0.171 7.871,-2.173 11.66,-3.599 m -51.655,-11.299 c 4.732,-0.976 9.57,-2.724 14.439,-1.626 4.882,-0.683 6.059,5.191 7.836,8.408 m -47.778,-10.332 c -1.85,-5.874 -5.361,-11.162 -6.489,-17.28 -0.674,-1.26 -1.987,-1.968 -2.871,-3.057 m -9.043,-9.365 c -5.415,5.108 -6.24,13.882 -2.905,20.342 m -93.624,-33.896 c 9.687,10.976 25.83,0.644 25.83,0.644 m 113.336,86.943 c 1.279,-15.732 21.435,-18.203 21.435,-18.203 M 4.819,-31.616 c 10.977,-9.361 8.394,-19.693 8.394,-19.693 m -81.333,-11.64 c 5.81,-12.271 2.583,-15.498 2.583,-15.498 m 30.347,0 c 1.294,-16.47 2.255,-17.115 2.255,-17.115 m -96.201,-30.019 c 7.807,1.152 15.63,2.319 23.525,2.7 1.568,0.059 3.203,0.093 4.614,0.869 1.597,0.64 3.194,1.28 4.786,1.914 m 32.285,82.647 c 1.729,1.748 3.491,3.457 5.196,5.224 1.801,3.658 3.588,7.344 5.878,10.723 0.777,1.328 1.573,2.715 2.901,3.56 1.689,1.357 3.384,2.71 5.073,4.062 m -67.149,-10.327 c -2.3,-1.846 -4.663,-4.155 -7.807,-4.224 -4.312,-0.937 -7.93,-3.686 -11.089,-6.64 -3.853,-2.31 -8.677,-1.402 -12.632,-3.374 -2.881,-1.773 -5.342,-5.264 -4.243,-8.76 0.756,-2.036 3.022,-3.213 3.305,-5.483 0.45,-2.198 1.719,-4.219 3.868,-5.064 0.302,-0.195 0.59,-0.415 0.834,-0.679 m -5.166,-31.64 c -2.583,0.429 -5.166,0.864 -7.749,1.294 -1.938,-0.865 -3.872,-1.724 -5.81,-2.583 -0.752,-1.949 -2.549,-3.741 -2.026,-5.987 0.41,-4.194 0.805,-8.755 3.613,-12.133 2.475,-2.759 4.365,-5.992 5.791,-9.395 0.986,-1.645 1.186,-3.677 0.703,-5.513 -0.01,-0.18 -0.015,-0.366 -0.01,-0.547 m 17.759,-8.72 c -2.046,2.48 -4.092,4.951 -6.133,7.427 -0.434,1.938 -0.864,3.876 -1.294,5.81 0.777,3.911 2.119,7.783 4.522,10.996 0.63,1.533 -0.396,3.613 -2.115,3.775 -1.616,-0.298 -3.359,-1.07 -4.961,-0.289 -3.227,0.743 -6.386,2.461 -8.203,5.313 -0.278,0.303 -0.561,0.596 -0.864,0.869 m 44.551,-17.432 c -3.609,1.563 -7.398,3.75 -8.818,7.652 -1.519,3.223 -1.353,7.705 -4.878,9.614 -2.422,2.559 -7.037,3.067 -7.959,6.919 -0.205,4.077 -0.928,8.779 -4.585,11.255 -2.779,1.953 -4.859,5.723 -8.702,5.522 -3.447,-0.073 -6.752,-3.925 -10.097,-2.041 -3.902,2.593 -5.713,7.149 -7.827,11.128 -1.519,3.418 -1.944,7.666 0.312,10.869 0.308,0.567 0.615,1.133 0.899,1.709"
             style="fill:none;stroke:#ffffff;stroke-width:0.799;stroke-linecap:butt;stroke-linejoin:miter;stroke-miterlimit:4;stroke-dasharray:none;stroke-opacity:1"
             id="path188" /></g><g
           id="g190"
           transform="translate(251.0283,2072.0762)"
           style="stroke:#f0e442"><path
             d="m 0,0 c -6.758,-1.138 -9.302,-8.491 -10.43,-14.365 -4.091,-4.131 -5.595,-10.215 -5.6,-15.42 -3.35,-3.716 -10.371,-6.499 -8.643,-12.627 0.957,-7.578 -9.023,-7.339 -14.14,-8.428 -5.401,0.083 -12.964,1.787 -15.914,-4.233 -2.978,-6.236 0,-13.189 -0.776,-19.741 -1.108,-9.747 -7.363,-18.057 -8.287,-27.872 -0.966,-6.962 -0.429,-14.028 0.509,-20.961"
             style="fill:none;stroke:#ffffff;stroke-width:1.598;stroke-linecap:butt;stroke-linejoin:miter;stroke-miterlimit:4;stroke-dasharray:none;stroke-opacity:1"
             id="path192" /></g><g
           id="g194"
           transform="translate(176.3599,2042.1885)"
           style="stroke:#f0e442"><path
             d="m 0,0 c -0.42,-2.93 -4.546,-5.396 -5.396,-9.243 1.446,-6.704 -1.24,-7.1 -7.88,-7.085 -2.525,-0.713 -3.75,-3.33 -4.532,-5.62 -0.844,-2.442 -1.137,-5.02 -1.474,-7.569 m 2.583,-14.848 c -3.164,-0.581 -7.237,0.913 -7.91,4.38 -1.885,3.291 -1.109,7.998 -4.541,10.371 -3.853,0.761 -6.358,5.029 -5.332,8.789 0.791,4.668 5.332,7.109 8.93,9.482 5.982,3.643 12.788,5.85 18.374,10.156 2.949,2.569 -0.132,6.548 1.284,9.512 2.144,3.228 6.382,3.443 9.634,4.946 3.384,1.304 7.334,2.12 10.709,0.323 l 0.493,-0.171 m 3.545,-40.674 c -2.139,1.436 -4.536,2.925 -7.232,2.686 -2.603,0.288 -5.205,-0.352 -7.583,-1.387 -3.223,-0.996 -6.411,-2.241 -9.17,-4.224 -1.968,-1.103 -3.628,-2.646 -5.083,-4.35 -1.563,-1.504 -3.027,-3.213 -3.662,-5.332 -0.542,-1.612 -1.743,-3.135 -1.397,-4.903 0.059,-2.392 0.074,-4.912 1.314,-7.051 0.718,-1.709 1.435,-3.427 2.143,-5.146 m 62.96,84.907 C 50.474,25.171 47.31,24.409 44.981,24.253 38.541,23.574 32.618,20.718 26.392,19.121 22.081,17.612 18.106,15.337 13.97,13.423 11.924,10.195 9.883,6.968 7.837,3.735 7.793,1.04 8.35,-2.49 11.329,-3.418 c 3.007,-1.265 5.903,-2.769 8.877,-4.106 3.164,-2.808 4.628,-6.914 6.816,-10.43 0.498,-0.947 0.981,-1.895 1.475,-2.842 M 6.87,-79.233 c -0.835,6.899 -2.251,13.969 -0.679,20.879 0.45,3.925 0.083,7.9 -0.576,11.791 -0.888,2.632 -2.895,4.654 -4.238,7.037"
             style="fill:none;stroke:#ffffff;stroke-width:0.799;stroke-linecap:butt;stroke-linejoin:miter;stroke-miterlimit:4;stroke-dasharray:none;stroke-opacity:1"
             id="path196" /></g><g
           id="g198"
           transform="translate(193.8799,2036.5635)"
           style="stroke:#f0e442"><path
             d="m 0,0 c 0.127,2.993 0.825,6.04 3.174,8.081 1.484,1.553 2.519,3.486 2.607,5.645 l 0.025,0.127 0.009,0.029"
             style="fill:none;stroke:#ffffff;stroke-width:0.639;stroke-linecap:butt;stroke-linejoin:miter;stroke-miterlimit:4;stroke-dasharray:none;stroke-opacity:1"
             id="path200" /></g></g></g><g
       id="g202"
       transform="translate(-44.971535,1035.199)"><g
         id="g204" /><g
         id="g236"><g
           clip-path="url(#clipPath208-6-3)"
           id="g234"><g
             transform="translate(1038.3584,1962.3594)"
             id="g216"><path
               d="m 0,0 -51.979,90.391 c -3.984,7.06 -11.406,11.474 -19.496,11.621 h -103.97 c -8.1,-0.137 -15.522,-4.561 -19.496,-11.612 L -246.929,0.186 c -4.024,-7.002 -4.024,-15.606 0,-22.608 l 51.978,-90.801 c 3.945,-7.153 11.342,-11.723 19.496,-12.031 h 103.971 c 8.148,0.274 15.56,4.824 19.492,11.978 l 51.976,90.405 C 4.023,-15.781 4.023,-7.095 0,0"
               style="fill:#000000;fill-opacity:1;fill-rule:nonzero;stroke:none"
               id="path214" /></g><g
             id="g224"><g
               id="g218" /><g
               id="g222"><g
                 clip-path="url(#clipPath212-9-7)"
                 opacity="0.0700073"
                 id="g220" /></g></g><g
             transform="translate(932.3525,2003.1064)"
             id="g228"><path
               d="M 0,0 V -12.476 H -11.354 V 0 H -23.57 V -12.476 H -34.918 V 0 h -12.471 v -12.476 c -5.345,-0.361 -9.603,-4.619 -9.97,-9.97 H -69.83 v -12.466 h 12.471 V -46.133 H -69.83 v -12.475 h 12.471 V -69.829 H -69.83 V -82.3 h 12.471 c 0.367,-5.356 4.625,-9.614 9.98,-9.975 v -12.466 h 12.461 v 12.475 h 11.348 v -12.475 h 12.216 v 12.475 H 0 v -12.475 h 12.475 v 12.475 c 5.341,0.362 9.599,4.62 9.961,9.976 h 12.476 v 12.461 H 22.436 v 11.221 h 12.476 v 12.475 H 22.436 v 11.221 h 12.476 v 12.475 H 22.436 c -0.362,5.342 -4.62,9.6 -9.975,9.961 V 0 Z m 8.008,-79.8 h -50.934 c -1.088,0 -1.963,0.874 -1.963,1.963 v 50.933 c 0,1.089 0.875,1.967 1.963,1.967 H 8.008 c 1.088,0 1.963,-0.878 1.963,-1.967 v -50.933 c 0,-1.089 -0.875,-1.963 -1.963,-1.963"
               style="fill:#ffffff;fill-opacity:1;fill-rule:nonzero;stroke:none"
               id="path226" /></g><g
             transform="translate(919.2178,1974.1123)"
             id="g232"
             style="fill:#ffffff;fill-opacity:1"><path
               d="m 0,0 v -18.755 h 10.277 l -18.32,-25.444 v 18.97 h -10.83 z"
               style="fill:#ffffff;fill-opacity:1;fill-rule:nonzero;stroke:none"
               id="path230" /></g></g></g></g></g></svg>
